<svg id="Ebene_1" data-name="Ebene 1" xmlns="http://www.w3.org/2000/svg" viewBox="0 0 274.06 274.06"><defs><style>.cls-1{fill:#b11f30;fill-rule:evenodd;}.cls-2{fill:#fff;}</style></defs><title>Hypoport-Stern_RGB</title><g id="_Gruppe_" data-name="&lt;Gruppe&gt;"><path id="_Pfad_" data-name="&lt;Pfad&gt;" class="cls-1" d="M278.76,141.74a137,137,0,1,1-137-137A137,137,0,0,1,278.76,141.74Z" transform="translate(-4.7 -4.7)"/><path id="_Zusammengesetzter_Pfad_" data-name="&lt;Zusammengesetzter Pfad&gt;" class="cls-2" d="M242.88,153.81a.82.82,0,0,1-.77.73l-66.59,2.3,24,22.71a.81.81,0,0,1-.82,1.35l-32.9-11.38,10.41,48a.81.81,0,0,1-.46.91.83.83,0,0,1-1-.27L147.65,180l-17,55.26a.8.8,0,0,1-.77.57h-.13a.8.8,0,0,1-.68-.81l1.38-55.09-28.27,36.92a.8.8,0,0,1-1.39-.77l16.62-43.88L93.13,184.86a.81.81,0,0,1-1-.18.8.8,0,0,1-.05-1l15.24-21.29-66.25,8.38a.8.8,0,0,1-.88-.6.81.81,0,0,1,.47-.95l62.16-25.75L70.57,130.38a.81.81,0,0,1,.2-1.55l34.29-4.45-38.6-45a.82.82,0,0,1,0-1,.83.83,0,0,1,1-.17l50.07,30.36L106,57.78a.81.81,0,0,1,.5-.93.82.82,0,0,1,1,.36l25.41,46.07,17-46.13a.8.8,0,0,1,1.56.3l-1.57,44.45L187,44.17a.81.81,0,0,1,1.43.74l-24.71,62.2,32.1-23.06a.81.81,0,0,1,1.15,1.1L174,119.86l40.79-3.23a.81.81,0,0,1,.84.58.79.79,0,0,1-.39.93l-37.6,20.35,64.61,14.45A.81.81,0,0,1,242.88,153.81Z" transform="translate(-4.7 -4.7)"/></g></svg>